<svg xmlns="http://www.w3.org/2000/svg" viewBox="0 0 48 48">
  <defs>
    <linearGradient id="bg" x1="4" y1="4" x2="44" y2="44">
      <stop stop-color="#1e3a5f"/>
      <stop offset="1" stop-color="#0f172a"/>
    </linearGradient>
    <linearGradient id="accent" x1="12" y1="8" x2="36" y2="40">
      <stop stop-color="#3b82f6"/>
      <stop offset="1" stop-color="#8b5cf6"/>
    </linearGradient>
  </defs>
  <rect x="4" y="4" width="40" height="40" rx="10" fill="url(#bg)" stroke="url(#accent)" stroke-width="1.5"/>
  <!-- Wings -->
  <path d="M8 20 C8 13, 13 9, 18 11 C15 12, 12 14, 13 18" fill="#60a5fa" opacity="0.8"/>
  <path d="M40 20 C40 13, 35 9, 30 11 C33 12, 36 14, 35 18" fill="#60a5fa" opacity="0.8"/>
  <!-- Staff -->
  <rect x="23" y="10" width="2.5" rx="1" fill="url(#accent)"/>
  <circle cx="24.25" cy="9" r="2.5" fill="#3b82f6"/>
  <!-- Snakes -->
  <path d="M20 14 C17 16, 15 19, 19 22 C22 24, 25 24, 23 27 C21 29, 24 31, 27 30" fill="none" stroke="#a5b4fc" stroke-width="1.5" stroke-linecap="round"/>
  <path d="M28 14 C31 16, 33 19, 29 22 C26 24, 23 24, 25 27 C27 29, 24 31, 21 30" fill="none" stroke="#c4b5fd" stroke-width="1.5" stroke-linecap="round"/>
  <!-- Dots -->
  <circle cx="24.25" cy="17" r="0.8" fill="#fbbf24" opacity="0.7"/>
  <circle cx="24.25" cy="23" r="0.8" fill="#fbbf24" opacity="0.7"/>
  <circle cx="24.25" cy="29" r="0.8" fill="#fbbf24" opacity="0.7"/>
</svg>
